<svg width="24" height="24" viewBox="0 0 24 24" fill="none" xmlns="http://www.w3.org/2000/svg">
<path d="M19 3.42383H5C3.89543 3.42383 3 4.29777 3 5.37583V19.0398C3 20.1179 3.89543 20.9918 5 20.9918H19C20.1046 20.9918 21 20.1179 21 19.0398V5.37583C21 4.29777 20.1046 3.42383 19 3.42383Z" stroke="#151515" stroke-width="2" stroke-linecap="round" stroke-linejoin="round"/>
<path d="M21 15.1359L16 10.2559L5 20.9919" stroke="#151515" stroke-width="2" stroke-linecap="round" stroke-linejoin="round"/>
<path d="M8.5 10.2561C9.32843 10.2561 10 9.60067 10 8.79212C10 7.98358 9.32843 7.32812 8.5 7.32812C7.67157 7.32812 7 7.98358 7 8.79212C7 9.60067 7.67157 10.2561 8.5 10.2561Z" stroke="#151515" stroke-width="2" stroke-linecap="round" stroke-linejoin="round"/>
</svg>
